<?xml version="1.0" encoding="utf-8"?>
<!-- Generator: Adobe Illustrator 19.0.0, SVG Export Plug-In . SVG Version: 6.00 Build 0)  -->
<svg version="1.1" id="Layer_1" xmlns="http://www.w3.org/2000/svg" xmlns:xlink="http://www.w3.org/1999/xlink" x="0px" y="0px"
	 viewBox="49 30.5 578 581.5" style="enable-background:new 49 30.5 578 581.5;" xml:space="preserve">
<style type="text/css">
	.st0{fill:#FFFFFF;}
</style>
<path id="XMLID_72_" d="M229.8,231.3"/>
<path id="XMLID_83_" d="M383.9,125.7c51.8,7.9,91.5,52.6,91.5,106.6c0,59.6-48.3,107.8-107.8,107.8s-107.8-48.3-107.8-107.8
	c0-54,39.7-98.7,91.5-106.6"/>
<rect id="XMLID_80_" x="256.8" y="192.1" class="st0" width="112.5" height="80.5"/>
<circle id="XMLID_63_" class="st0" cx="368.3" cy="232.4" r="40.3"/>
<path id="XMLID_62_" d="M588.8,71.5v500h-500v-500H588.8 M628.8,31.5h-40h-500h-40v40v500v40h40h500h40v-40v-500V31.5L628.8,31.5z"
	/>
<polygon id="XMLID_82_" points="384.7,125.5 196,125.5 196,307.6 257,248.9 257,192.5 315.6,192.5 "/>
<path id="XMLID_1_" d="M457,521.7V379.5c0,0,0.1-9.3-3.8-18.7c-3.9-9.3-18.2-9.3-18.2-9.3H292.4l53.1,55H397v52.8L457,521.7z"/>
<rect id="XMLID_2_" x="196" y="321.5" width="61" height="191"/>
</svg>
