<?xml version="1.0" encoding="utf-8"?>
<!-- Generator: Adobe Illustrator 19.0.0, SVG Export Plug-In . SVG Version: 6.00 Build 0)  -->
<svg version="1.0" id="Layer_1" xmlns="http://www.w3.org/2000/svg" xmlns:xlink="http://www.w3.org/1999/xlink" x="0px" y="0px"
	 viewBox="0 0 480 640" enable-background="new 0 0 480 640" xml:space="preserve">
<path d="M0,399.5c0,0,113-217.1,234-216.5c47.5,0.2,74.6,34.1,111,15c33.3-17.5,62.2-72.9,64-124c0.7-19.3-2.5-38.9,11-55
	c16.4-19.5,44.7-19,44.7-19H0V399.5z"/>
<path fill="#3D3D3D" d="M399.5,640c0,0-217.1-113-216.5-234c0.2-47.5,34.1-74.6,15-111c-17.5-33.3-72.9-62.2-124-64
	c-19.3-0.7-38.9,2.5-55-11c-19.5-16.4-19-44.7-19-44.7L0,640H399.5z"/>
<path fill="#EAEAEA" d="M0,480c3.1-35,156.7-84.6,258.6-39.4c41.5,18.4,61.9,46.6,106.5,45c61.2-2.2,114-48,114-48L480,640H0
	C0,640-1.2,492.9,0,480z"/>
</svg>
